<svg width="16" height="16" viewBox="0 0 16 16" fill="none" xmlns="http://www.w3.org/2000/svg">
<g clip-path="url(#clip0_1_21186)">
<path d="M15.0366 9.10796L13.7699 4.55062C13.3987 3.21551 12.5918 2.04281 11.4775 1.21894C10.3632 0.395058 9.00553 -0.0327193 7.62024 0.00360073C6.23494 0.0399208 4.90153 0.538254 3.83197 1.41939C2.76241 2.30052 2.01806 3.51389 1.71726 4.86662L0.736594 9.27662C0.62827 9.76391 0.630775 10.2693 0.743922 10.7555C0.857069 11.2417 1.07797 11.6963 1.39031 12.0857C1.70266 12.475 2.09847 12.7893 2.54853 13.0053C2.99859 13.2212 3.49141 13.3333 3.99059 13.3333H4.73326C4.88627 14.0868 5.29508 14.7643 5.89042 15.2509C6.48576 15.7375 7.23102 16.0033 7.99993 16.0033C8.76883 16.0033 9.51409 15.7375 10.1094 15.2509C10.7048 14.7643 11.1136 14.0868 11.2666 13.3333H11.8253C12.3391 13.3333 12.8461 13.2146 13.3064 12.9862C13.7668 12.7579 14.1682 12.4263 14.4791 12.0172C14.7901 11.6081 15.0023 11.1327 15.0991 10.628C15.1959 10.1233 15.1748 9.60309 15.0373 9.10796H15.0366ZM7.99993 14.6666C7.58775 14.6649 7.18617 14.5359 6.85013 14.2972C6.51408 14.0586 6.25998 13.7219 6.12259 13.3333H9.87726C9.73987 13.7219 9.48577 14.0586 9.14973 14.2972C8.81368 14.5359 8.4121 14.6649 7.99993 14.6666ZM13.4173 11.21C13.2315 11.4564 12.9908 11.6561 12.7143 11.7933C12.4379 11.9304 12.1332 12.0012 11.8246 12H3.99059C3.69112 11.9999 3.39547 11.9326 3.12549 11.803C2.8555 11.6734 2.61806 11.4848 2.4307 11.2512C2.24334 11.0176 2.11083 10.7449 2.04297 10.4532C1.9751 10.1615 1.97361 9.8583 2.03859 9.56596L3.01859 5.15529C3.25483 4.09276 3.83946 3.13969 4.67956 2.44759C5.51966 1.75549 6.56701 1.36407 7.65511 1.33557C8.74321 1.30706 9.80961 1.6431 10.6848 2.29027C11.56 2.93744 12.1937 3.85859 12.4853 4.90729L13.7519 9.46462C13.8356 9.76154 13.849 10.0739 13.7909 10.3768C13.7328 10.6798 13.6048 10.9651 13.4173 11.21Z" fill="#727A90"/>
</g>
<defs>
<clipPath id="clip0_1_21186">
<rect width="16" height="16" fill="white"/>
</clipPath>
</defs>
</svg>
