<svg width="20" height="20" viewBox="0 0 20 20" fill="none" xmlns="http://www.w3.org/2000/svg">
<path d="M10.86 14.3934L7.14003 10.6667C7.01586 10.5418 6.94617 10.3728 6.94617 10.1967C6.94617 10.0206 7.01586 9.85161 7.14003 9.7267L10.86 6.00004C10.9533 5.90602 11.0724 5.8419 11.2022 5.81585C11.3321 5.7898 11.4667 5.80301 11.589 5.85379C11.7113 5.90457 11.8157 5.99061 11.8889 6.10096C11.9621 6.21131 12.0008 6.34095 12 6.47337V13.92C12.0008 14.0525 11.9621 14.1821 11.8889 14.2924C11.8157 14.4028 11.7113 14.4888 11.589 14.5396C11.4667 14.5904 11.3321 14.6036 11.2022 14.5776C11.0724 14.5515 10.9533 14.4874 10.86 14.3934Z" fill="#727A90"/>
</svg>
