<svg width="20" height="20" viewBox="0 0 20 20" fill="none" xmlns="http://www.w3.org/2000/svg">
<path d="M9.99989 12.6656C11.4721 12.6656 12.6656 11.4721 12.6656 9.99989C12.6656 8.52769 11.4721 7.33423 9.99989 7.33423C8.52769 7.33423 7.33423 8.52769 7.33423 9.99989C7.33423 11.4721 8.52769 12.6656 9.99989 12.6656Z" fill="#727A90"/>
<path d="M17.5112 8.28001C16.4776 6.59663 14.1265 3.77234 9.99998 3.77234C5.87352 3.77234 3.52239 6.59663 2.48877 8.28001C1.83708 9.33409 1.83708 10.666 2.48877 11.7201C3.52239 13.4035 5.87352 16.2277 9.99998 16.2277C14.1265 16.2277 16.4776 13.4035 17.5112 11.7201C18.1629 10.666 18.1629 9.33409 17.5112 8.28001ZM9.99998 13.9985C7.79168 13.9985 6.00147 12.2083 6.00147 10C6.00147 7.79172 7.79168 6.00151 9.99998 6.00151C12.2083 6.00151 13.9985 7.79172 13.9985 10C13.9963 12.2074 12.2074 13.9963 9.99998 13.9985Z" fill="#727A90"/>
</svg>
