<svg width="18" height="18" viewBox="0 0 18 18" fill="none" xmlns="http://www.w3.org/2000/svg">
<path fill-rule="evenodd" clip-rule="evenodd" d="M8.98345 5.68937L7.92279 4.6287C6.75121 3.45713 4.85171 3.4571 3.68014 4.62867C2.50858 5.80022 2.50858 7.69969 3.68013 8.87127L8.98338 14.1746L14.2736 8.88438L14.2868 8.87134C15.4583 7.69978 15.4583 5.80029 14.2868 4.62871C13.1152 3.45714 11.2157 3.45713 10.0441 4.62869L8.98345 5.68937ZM2.61942 9.93195C0.862098 8.17459 0.862143 5.32534 2.61948 3.568C4.37682 1.81066 7.22606 1.81067 8.98342 3.56803C10.7408 1.81068 13.59 1.81069 15.3474 3.56806C17.1048 5.32542 17.1048 8.17466 15.3474 9.932L15.3278 9.95147L9.77888 15.5004C9.33955 15.9398 8.62724 15.9398 8.1879 15.5004L2.61942 9.93195Z" fill="#E51B1B"/>
</svg>
