<svg width="46" height="40" viewBox="0 0 46 40" fill="none" xmlns="http://www.w3.org/2000/svg">
<g clip-path="url(#clip0_1_19597)">
<path d="M28.9655 15.1564L22.652 21.4699C21.948 22.1721 20.9943 22.5664 20 22.5664C19.0057 22.5664 18.052 22.1721 17.348 21.4699L11.0345 15.1564C11.024 15.2749 11 15.3821 11 15.4999V24.4999C11.0012 25.4941 11.3967 26.4472 12.0997 27.1502C12.8027 27.8532 13.7558 28.2487 14.75 28.2499H25.25C26.2442 28.2487 27.1973 27.8532 27.9003 27.1502C28.6033 26.4472 28.9988 25.4941 29 24.4999V15.4999C29 15.3821 28.976 15.2749 28.9655 15.1564Z" fill="#727A90"/>
<path d="M21.5915 20.4094L28.442 13.5581C28.1102 13.0079 27.6421 12.5524 27.083 12.2357C26.5239 11.9189 25.8926 11.7516 25.25 11.7499H14.75C14.1075 11.7516 13.4762 11.9189 12.9171 12.2357C12.358 12.5524 11.8899 13.0079 11.558 13.5581L18.4085 20.4094C18.8312 20.8304 19.4035 21.0667 20 21.0667C20.5966 21.0667 21.1689 20.8304 21.5915 20.4094Z" fill="#727A90"/>
</g>
<rect x="21" y="4" width="25" height="18" rx="9" fill="#F05D3D"/>
<path d="M28.11 17L30.66 13.7L30.86 13.83C30.7667 13.93 30.6633 14.01 30.55 14.07C30.4433 14.13 30.3267 14.1733 30.2 14.2C30.08 14.2267 29.95 14.24 29.81 14.24C29.3633 14.24 28.9633 14.14 28.61 13.94C28.2567 13.7333 27.9767 13.4533 27.77 13.1C27.57 12.74 27.47 12.3333 27.47 11.88C27.47 11.4067 27.58 10.9867 27.8 10.62C28.02 10.2533 28.32 9.96333 28.7 9.75C29.08 9.53667 29.5133 9.43 30 9.43C30.4933 9.43 30.9267 9.53667 31.3 9.75C31.68 9.96333 31.9767 10.2567 32.19 10.63C32.41 10.9967 32.52 11.4167 32.52 11.89C32.52 12.1433 32.4933 12.3933 32.44 12.64C32.3867 12.8867 32.2933 13.1433 32.16 13.41C32.0267 13.67 31.84 13.9567 31.6 14.27L29.52 17H28.11ZM30 13.25C30.26 13.25 30.49 13.19 30.69 13.07C30.89 12.95 31.05 12.7867 31.17 12.58C31.29 12.3733 31.35 12.1367 31.35 11.87C31.35 11.5967 31.29 11.3567 31.17 11.15C31.05 10.9367 30.8867 10.7733 30.68 10.66C30.48 10.54 30.2533 10.48 30 10.48C29.7467 10.48 29.5167 10.54 29.31 10.66C29.11 10.7733 28.95 10.9367 28.83 11.15C28.71 11.3567 28.65 11.5967 28.65 11.87C28.65 12.1367 28.7067 12.3733 28.82 12.58C28.94 12.7867 29.1033 12.95 29.31 13.07C29.5167 13.19 29.7467 13.25 30 13.25ZM34.1659 17L36.7159 13.7L36.9159 13.83C36.8225 13.93 36.7192 14.01 36.6059 14.07C36.4992 14.13 36.3825 14.1733 36.2559 14.2C36.1359 14.2267 36.0059 14.24 35.8659 14.24C35.4192 14.24 35.0192 14.14 34.6659 13.94C34.3125 13.7333 34.0325 13.4533 33.8259 13.1C33.6259 12.74 33.5259 12.3333 33.5259 11.88C33.5259 11.4067 33.6359 10.9867 33.8559 10.62C34.0759 10.2533 34.3759 9.96333 34.7559 9.75C35.1359 9.53667 35.5692 9.43 36.0559 9.43C36.5492 9.43 36.9825 9.53667 37.3559 9.75C37.7359 9.96333 38.0325 10.2567 38.2459 10.63C38.4659 10.9967 38.5759 11.4167 38.5759 11.89C38.5759 12.1433 38.5492 12.3933 38.4959 12.64C38.4425 12.8867 38.3492 13.1433 38.2159 13.41C38.0825 13.67 37.8959 13.9567 37.6559 14.27L35.5759 17H34.1659ZM36.0559 13.25C36.3159 13.25 36.5459 13.19 36.7459 13.07C36.9459 12.95 37.1059 12.7867 37.2259 12.58C37.3459 12.3733 37.4059 12.1367 37.4059 11.87C37.4059 11.5967 37.3459 11.3567 37.2259 11.15C37.1059 10.9367 36.9425 10.7733 36.7359 10.66C36.5359 10.54 36.3092 10.48 36.0559 10.48C35.8025 10.48 35.5725 10.54 35.3659 10.66C35.1659 10.7733 35.0059 10.9367 34.8859 11.15C34.7659 11.3567 34.7059 11.5967 34.7059 11.87C34.7059 12.1367 34.7625 12.3733 34.8759 12.58C34.9959 12.7867 35.1592 12.95 35.3659 13.07C35.5725 13.19 35.8025 13.25 36.0559 13.25Z" fill="white"/>
<defs>
<clipPath id="clip0_1_19597">
<rect width="18" height="18" fill="white" transform="translate(11 11)"/>
</clipPath>
</defs>
</svg>
