<svg width="18" height="18" viewBox="0 0 18 18" fill="none" xmlns="http://www.w3.org/2000/svg">
<path d="M9.00006 3C9.82848 3 10.5001 2.32843 10.5001 1.5C10.5001 0.671573 9.82848 0 9.00006 0C8.17163 0 7.50006 0.671573 7.50006 1.5C7.50006 2.32843 8.17163 3 9.00006 3Z" fill="#727A90"/>
<path d="M9.00006 10.5002C9.82848 10.5002 10.5001 9.82865 10.5001 9.00023C10.5001 8.1718 9.82848 7.50023 9.00006 7.50023C8.17163 7.50023 7.50006 8.1718 7.50006 9.00023C7.50006 9.82865 8.17163 10.5002 9.00006 10.5002Z" fill="#727A90"/>
<path d="M9.00006 17.9998C9.82848 17.9998 10.5001 17.3282 10.5001 16.4998C10.5001 15.6714 9.82848 14.9998 9.00006 14.9998C8.17163 14.9998 7.50006 15.6714 7.50006 16.4998C7.50006 17.3282 8.17163 17.9998 9.00006 17.9998Z" fill="#727A90"/>
</svg>
