<svg width="24" height="24" viewBox="0 0 24 24" fill="none" xmlns="http://www.w3.org/2000/svg">
<g clip-path="url(#clip0_1_19602)">
<path d="M8.56799 18.75C8.85874 19.4185 9.33841 19.9876 9.94811 20.3873C10.5578 20.787 11.271 21 12 21C12.729 21 13.4422 20.787 14.0519 20.3873C14.6616 19.9876 15.1412 19.4185 15.432 18.75H8.56799Z" fill="#727A90"/>
<path d="M19.794 12.4118L18.492 8.11951C18.0751 6.61827 17.1686 5.29934 15.9164 4.37213C14.6643 3.44493 13.1383 2.9626 11.5807 3.00172C10.0231 3.04084 8.52328 3.59917 7.31927 4.58806C6.11525 5.57696 5.27609 6.93973 4.93504 8.46001L3.92404 12.6128C3.78966 13.1646 3.78238 13.7397 3.90275 14.2947C4.02311 14.8498 4.26797 15.3702 4.61886 15.8168C4.96974 16.2634 5.41747 16.6245 5.92828 16.8727C6.43908 17.121 6.9996 17.25 7.56754 17.25H16.2053C16.7908 17.25 17.3683 17.1129 17.8913 16.8497C18.4143 16.5864 18.8685 16.2044 19.2173 15.7341C19.5661 15.2638 19.8 14.7183 19.9002 14.1414C20.0003 13.5645 19.964 12.9721 19.794 12.4118Z" fill="#727A90"/>
</g>
<defs>
<clipPath id="clip0_1_19602">
<rect width="18" height="18" fill="white" transform="translate(3 3)"/>
</clipPath>
</defs>
</svg>
