<svg width="16" height="16" viewBox="0 0 16 16" fill="none" xmlns="http://www.w3.org/2000/svg">
<g clip-path="url(#clip0_1_19087)">
<path d="M15.3 6.39984C15.175 6.27486 15.0055 6.20465 14.8287 6.20465C14.6519 6.20465 14.4824 6.27486 14.3573 6.39984L7.09602 13.6925C6.78649 14.0021 6.41902 14.2476 6.01459 14.4152C5.61016 14.5828 5.17668 14.669 4.73892 14.669C3.85481 14.6691 3.00689 14.318 2.38168 13.6928C1.75648 13.0677 1.40521 12.2198 1.40515 11.3357C1.40508 10.4516 1.75623 9.60371 2.38135 8.97851L9.41402 1.91717C9.79008 1.5471 10.2971 1.34062 10.8247 1.3427C11.3523 1.34479 11.8578 1.55528 12.2309 1.92831C12.604 2.30134 12.8146 2.8067 12.8168 3.33431C12.819 3.86192 12.6127 4.36903 12.2427 4.74517L5.21002 11.8065C5.08318 11.928 4.91432 11.9958 4.73868 11.9958C4.56304 11.9958 4.39418 11.928 4.26735 11.8065C4.14237 11.6815 4.07216 11.5119 4.07216 11.3352C4.07216 11.1584 4.14237 10.9889 4.26735 10.8638L10.5287 4.57384C10.6501 4.4481 10.7173 4.2797 10.7158 4.10491C10.7143 3.93011 10.6442 3.7629 10.5206 3.63929C10.397 3.51569 10.2297 3.44558 10.0549 3.44406C9.88015 3.44254 9.71175 3.50973 9.58602 3.63117L3.32468 9.92117C3.13893 10.1069 2.99158 10.3274 2.89105 10.5701C2.79052 10.8127 2.73878 11.0728 2.73878 11.3355C2.73878 11.5982 2.79052 11.8583 2.89105 12.101C2.99158 12.3436 3.13893 12.5641 3.32468 12.7498C3.70576 13.1135 4.21227 13.3164 4.73902 13.3164C5.26576 13.3164 5.77227 13.1135 6.15335 12.7498L13.1853 5.68784C13.7973 5.06004 14.1374 4.21641 14.1317 3.33969C14.1261 2.46297 13.7753 1.62376 13.1553 1.00385C12.5353 0.38395 11.6961 0.0332688 10.8194 0.0277755C9.94265 0.0222822 9.09906 0.362419 8.47135 0.974505L1.43868 8.03584C0.563468 8.91105 0.0717773 10.0981 0.0717773 11.3358C0.0717774 12.5736 0.563468 13.7606 1.43868 14.6358C2.3139 15.5111 3.50094 16.0027 4.73868 16.0027C5.97642 16.0027 7.16347 15.5111 8.03868 14.6358L15.3 7.34517C15.3623 7.28322 15.4117 7.20957 15.4455 7.12845C15.4792 7.04734 15.4965 6.96035 15.4965 6.87251C15.4965 6.78466 15.4792 6.69767 15.4455 6.61656C15.4117 6.53544 15.3623 6.46179 15.3 6.39984Z" fill="#727A90"/>
</g>
<defs>
<clipPath id="clip0_1_19087">
<rect width="16" height="16" fill="white"/>
</clipPath>
</defs>
</svg>
