<svg width="16" height="16" viewBox="0 0 16 16" fill="none" xmlns="http://www.w3.org/2000/svg">
<g clip-path="url(#clip0_1_19090)">
<path d="M15.7993 1.14545L3.45935 13.482C3.72613 13.6121 4.01873 13.6804 4.31549 13.6819H6.42888C6.60568 13.6815 6.77529 13.7518 6.89994 13.8771L8.04525 15.0218C8.66634 15.6472 9.51112 15.9992 10.3925 15.9999C10.7564 15.9995 11.1178 15.9399 11.4625 15.8233C12.6509 15.4337 13.5152 14.4036 13.6925 13.1656L15.9438 2.47199C16.0513 2.02642 16.0002 1.55736 15.7993 1.14545Z" fill="white"/>
<path d="M13.5472 0.0514185L2.87966 2.29875C1.05694 2.54917 -0.217667 4.22978 0.0327446 6.0525C0.131654 6.77231 0.463173 7.4401 0.976802 7.95401L2.12146 9.09866C2.24657 9.22375 2.31681 9.39345 2.31668 9.57038V11.6838C2.31821 11.9805 2.38655 12.2732 2.51656 12.5399L14.8545 0.200017C14.449 0.000761462 13.987 -0.0517382 13.5472 0.0514185Z" fill="white"/>
</g>
<defs>
<clipPath id="clip0_1_19090">
<rect width="16" height="16" fill="white"/>
</clipPath>
</defs>
</svg>
